# xmcd CD database file
#
# Track frame offsets:
#	150
#	19727
#	42872
#	62055
#	75932
#	91672
#	110055
#	127272
#	144465
#	162452
#	181430
#	196790
#	216672
#	231837
#	249792
#	269245
#	291300
#
# Disc length: 4203 seconds
#
# Revision: 0
# Processed by: cddbd v1.4PL0 Copyright (c) Steve Scherf et al.
# Submitted via: CDex 1.50Beta7
#
DISCID=fc106911
DTITLE=Nouvelle - Free Bossa
DYEAR=2002
DGENRE=Jazz
TTITLE0=Samba Primitivo
TTITLE1=Sereia
TTITLE2=Music Matador
TTITLE3=Decidete mi Amor
TTITLE4=Tears
TTITLE5=Quem vem pra beira do mar
TTITLE6=Sair do Ar
TTITLE7=Céu do Brasil (Riquixá)
TTITLE8=Free Bossa
TTITLE9=Dock of the bay
TTITLE10=Las Hormigas
TTITLE11=Amor
TTITLE12=Pra dizer Adeus
TTITLE13=I loves you Porgy
TTITLE14=Bewitched
TTITLE15=Acauã
TTITLE16=Mulher Rendeira
EXTD=YEAR: 2002
EXTT0=
EXTT1=
EXTT2=
EXTT3=
EXTT4=
EXTT5=
EXTT6=
EXTT7=
EXTT8=
EXTT9=
EXTT10=
EXTT11=
EXTT12=
EXTT13=
EXTT14=
EXTT15=
EXTT16=
PLAYORDER=
